<svg width="140" height="140" viewBox="0 0 140 140" fill="none" xmlns="http://www.w3.org/2000/svg">
<path d="M94.1875 3.10268H2.5V44.6875C62.8822 44.6875 88.75 15.558 94.1875 3.10268Z" stroke="#5A87E9" stroke-width="5"/>
<path d="M94.1875 136.897H2.5V95.3125C62.8822 95.3125 88.75 124.442 94.1875 136.897Z" stroke="#5A87E9" stroke-width="5"/>
<path d="M2.5 70C2.5 76.1356 2.5 85.7112 2.5 85.7112C2.5 85.7112 43.3921 89.2026 65.7988 99.0948C88.2054 108.987 115.654 137.5 115.654 137.5H137.5V70" stroke="#A69FBF" stroke-width="5"/>
<path d="M2.5 72.4107C2.5 66.056 2.5 56.1384 2.5 56.1384C2.5 56.1384 43.3921 52.5223 65.7988 42.2768C88.2054 32.0313 115.654 2.5 115.654 2.5H137.5V72.4107" stroke="#A69FBF" stroke-width="5"/>
</svg>
