<svg width="389" height="140" viewBox="0 0 389 140" fill="none" xmlns="http://www.w3.org/2000/svg">
<path d="M221.212 98.5L191.932 63.268L220.444 31.012H236.764L204.988 66.052V60.004L237.82 98.5H221.212ZM180.412 98.5V31.012H193.468V98.5H180.412ZM260.344 99.46C256.248 99.46 252.6 98.596 249.4 96.868C246.264 95.14 243.8 92.74 242.008 89.668C240.216 86.596 239.32 83.044 239.32 79.012V52.132H251.992V78.724C251.992 80.644 252.312 82.308 252.952 83.716C253.592 85.06 254.552 86.084 255.832 86.788C257.112 87.492 258.616 87.844 260.344 87.844C262.968 87.844 265.016 87.044 266.488 85.444C267.96 83.844 268.696 81.604 268.696 78.724V52.132H281.272V79.012C281.272 83.108 280.376 86.692 278.584 89.764C276.856 92.836 274.392 95.236 271.192 96.964C268.056 98.628 264.44 99.46 260.344 99.46ZM291.287 98.5V52.132H303.863V98.5H291.287ZM303.863 72.868L298.967 69.604C299.543 63.908 301.207 59.428 303.959 56.164C306.711 52.836 310.679 51.172 315.863 51.172C318.103 51.172 320.119 51.556 321.911 52.324C323.703 53.028 325.335 54.212 326.807 55.876L318.935 64.9C318.231 64.132 317.367 63.556 316.343 63.172C315.383 62.788 314.263 62.596 312.983 62.596C310.295 62.596 308.087 63.46 306.359 65.188C304.695 66.852 303.863 69.412 303.863 72.868ZM351.704 99.46C347.032 99.46 342.808 98.404 339.032 96.292C335.32 94.116 332.344 91.204 330.104 87.556C327.928 83.844 326.84 79.716 326.84 75.172C326.84 70.628 327.928 66.564 330.104 62.98C332.28 59.332 335.256 56.452 339.032 54.34C342.808 52.164 347 51.076 351.608 51.076C356.344 51.076 360.568 52.164 364.28 54.34C368.056 56.452 371.032 59.332 373.208 62.98C375.384 66.564 376.472 70.628 376.472 75.172C376.472 79.716 375.384 83.844 373.208 87.556C371.032 91.204 368.056 94.116 364.28 96.292C360.568 98.404 356.376 99.46 351.704 99.46ZM351.608 87.748C353.976 87.748 356.056 87.236 357.848 86.212C359.704 85.124 361.112 83.652 362.072 81.796C363.096 79.876 363.608 77.7 363.608 75.268C363.608 72.836 363.096 70.692 362.072 68.836C361.048 66.98 359.64 65.54 357.848 64.516C356.056 63.428 353.976 62.884 351.608 62.884C349.304 62.884 347.256 63.428 345.464 64.516C343.672 65.54 342.264 66.98 341.24 68.836C340.216 70.692 339.704 72.836 339.704 75.268C339.704 77.7 340.216 79.876 341.24 81.796C342.264 83.652 343.672 85.124 345.464 86.212C347.256 87.236 349.304 87.748 351.608 87.748Z" fill="white"/>
<path d="M94.1875 3.10269H2.5V44.6875C62.8822 44.6875 88.75 15.558 94.1875 3.10269Z" stroke="#5A87E9" stroke-width="5"/>
<path d="M94.1875 136.897H2.5V95.3125C62.8822 95.3125 88.75 124.442 94.1875 136.897Z" stroke="#5A87E9" stroke-width="5"/>
<path d="M2.5 70C2.5 76.1356 2.5 85.7112 2.5 85.7112C2.5 85.7112 43.3921 89.2026 65.7988 99.0948C88.2054 108.987 115.654 137.5 115.654 137.5H137.5V70" stroke="#A69FBF" stroke-width="5"/>
<path d="M2.5 72.4107C2.5 66.056 2.5 56.1384 2.5 56.1384C2.5 56.1384 43.3921 52.5223 65.7988 42.2768C88.2054 32.0312 115.654 2.5 115.654 2.5H137.5V72.4107" stroke="#A69FBF" stroke-width="5"/>
</svg>
