<svg width="387" height="140" viewBox="0 0 387 140" fill="none" xmlns="http://www.w3.org/2000/svg">
<path d="M94.1875 3.10269H2.5V44.6875C62.8822 44.6875 88.75 15.558 94.1875 3.10269Z" stroke="#5A87E9" stroke-width="5"/>
<path d="M94.1875 136.897H2.5V95.3125C62.8822 95.3125 88.75 124.442 94.1875 136.897Z" stroke="#5A87E9" stroke-width="5"/>
<path d="M2.5 70C2.5 76.1356 2.5 85.7112 2.5 85.7112C2.5 85.7112 43.3921 89.2026 65.7988 99.0948C88.2054 108.987 115.654 137.5 115.654 137.5H137.5V70" stroke="#A69FBF" stroke-width="5"/>
<path d="M2.5 72.4107C2.5 66.056 2.5 56.1384 2.5 56.1384C2.5 56.1384 43.3921 52.5223 65.7988 42.2768C88.2054 32.0312 115.654 2.5 115.654 2.5H137.5V72.4107" stroke="#A69FBF" stroke-width="5"/>
<path d="M220.218 99.5L191.548 65.002L219.466 33.418H235.446L204.332 67.728V61.806L236.48 99.5H220.218ZM180.268 99.5V33.418H193.052V99.5H180.268ZM258.535 100.44C254.524 100.44 250.952 99.594 247.819 97.902C244.748 96.21 242.335 93.86 240.581 90.852C238.826 87.844 237.949 84.366 237.949 80.418V54.098H250.357V80.136C250.357 82.016 250.67 83.6453 251.297 85.024C251.923 86.34 252.863 87.3427 254.117 88.032C255.37 88.7213 256.843 89.066 258.535 89.066C261.104 89.066 263.109 88.2827 264.551 86.716C265.992 85.1493 266.713 82.956 266.713 80.136V54.098H279.027V80.418C279.027 84.4287 278.149 87.938 276.395 90.946C274.703 93.954 272.29 96.304 269.157 97.996C266.086 99.6253 262.545 100.44 258.535 100.44ZM288.833 99.5V54.098H301.147V99.5H288.833ZM301.147 74.402L296.353 71.206C296.917 65.6287 298.546 61.242 301.241 58.046C303.936 54.7873 307.821 53.158 312.897 53.158C315.09 53.158 317.064 53.534 318.819 54.286C320.574 54.9753 322.172 56.1347 323.613 57.764L315.905 66.6C315.216 65.848 314.37 65.284 313.367 64.908C312.427 64.532 311.33 64.344 310.077 64.344C307.445 64.344 305.283 65.19 303.591 66.882C301.962 68.5113 301.147 71.018 301.147 74.402ZM347.991 100.44C343.417 100.44 339.281 99.406 335.583 97.338C331.949 95.2073 329.035 92.356 326.841 88.784C324.711 85.1493 323.645 81.1073 323.645 76.658C323.645 72.2087 324.711 68.2293 326.841 64.72C328.972 61.148 331.886 58.328 335.583 56.26C339.281 54.1293 343.385 53.064 347.897 53.064C352.535 53.064 356.671 54.1293 360.305 56.26C364.003 58.328 366.917 61.148 369.047 64.72C371.178 68.2293 372.243 72.2087 372.243 76.658C372.243 81.1073 371.178 85.1493 369.047 88.784C366.917 92.356 364.003 95.2073 360.305 97.338C356.671 99.406 352.566 100.44 347.991 100.44ZM347.897 88.972C350.216 88.972 352.253 88.4707 354.007 87.468C355.825 86.4027 357.203 84.9613 358.143 83.144C359.146 81.264 359.647 79.1333 359.647 76.752C359.647 74.3707 359.146 72.2713 358.143 70.454C357.141 68.6367 355.762 67.2267 354.007 66.224C352.253 65.1587 350.216 64.626 347.897 64.626C345.641 64.626 343.636 65.1587 341.881 66.224C340.127 67.2267 338.748 68.6367 337.745 70.454C336.743 72.2713 336.241 74.3707 336.241 76.752C336.241 79.1333 336.743 81.264 337.745 83.144C338.748 84.9613 340.127 86.4027 341.881 87.468C343.636 88.4707 345.641 88.972 347.897 88.972Z" fill="#5A87E9"/>
</svg>
